<svg height="320" version="1.1" width="320" xmlns="http://www.w3.org/2000/svg" xmlns:xlink="http://www.w3.org/1999/xlink" style="overflow: hidden; position: relative; left: -0.600037px; top: -0.399994px;" viewBox="0 0 320 320" preserveAspectRatio="xMidYMid meet" id="main_svg"><svg height="320" version="1.1" width="320" xmlns="http://www.w3.org/2000/svg" xmlns:xlink="http://www.w3.org/1999/xlink" style="overflow: hidden; position: relative; top: -0.0124969px;" viewBox="0 0 16 16" preserveAspectRatio="xMidYMid meet" id="imported_svg_layer_1"><path fill="url(#gradient_r8wzdapblqh1h8aqdkzcw7)" stroke="none" d="M12.9975,0H3.0025A3.00693,3.00693,0,0,0,0,3.0025V12.997499999999999A3.00693,3.00693,0,0,0,3.0025,16H12.997499999999999A3.00693,3.00693,0,0,0,16,12.9975V3.0025A3.00693,3.00693,0,0,0,12.9975,0ZM14,12.9975A1.007,1.007,0,0,1,12.9975,14H3.0025A1.007,1.007,0,0,1,2,12.9975V3.0025A1.007,1.007,0,0,1,3.0025,2H12.997499999999999A1.007,1.007,0,0,1,14,3.0025V12.997499999999999Z" stroke-width="0" opacity="1" fill-opacity="1" transform="matrix(1,0,0,1,0,0)" style="-webkit-tap-highlight-color: rgba(0, 0, 0, 0); opacity: 1; fill-opacity: 1;"></path><desc style="-webkit-tap-highlight-color: rgba(0, 0, 0, 0);">Created with Logotizer</desc><defs style="-webkit-tap-highlight-color: rgba(0, 0, 0, 0);"><linearGradient id="gradient_r8wzdapblqh1h8aqdkzcw7" x1="0" y1="0" x2="0.017455064928217204" y2="1" style="-webkit-tap-highlight-color: rgba(0, 0, 0, 0);"><stop offset="0%" stop-color="#dbffc2" stop-opacity="1" style="-webkit-tap-highlight-color: rgba(0, 0, 0, 0);"></stop><stop offset="100%" stop-color="#e3e0ff" stop-opacity="1" style="-webkit-tap-highlight-color: rgba(0, 0, 0, 0);"></stop></linearGradient></defs></svg><svg height="320" version="1.1" width="320" xmlns="http://www.w3.org/2000/svg" xmlns:xlink="http://www.w3.org/1999/xlink" style="overflow: hidden; position: relative; top: -0.0124969px;" viewBox="0 0 160 160" preserveAspectRatio="xMidYMid meet" id="imported_svg_layer_2"><desc style="-webkit-tap-highlight-color: rgba(0, 0, 0, 0);">Created with Logotizer</desc><defs style="-webkit-tap-highlight-color: rgba(0, 0, 0, 0);"></defs><path fill="#ffffff" stroke="#e92424" d="M20,102.5H50V145L80,160L110,145V102.5H140L80,50L20,102.5" stroke-width="2" transform="matrix(1,0,0,1,0,0)" style="-webkit-tap-highlight-color: rgba(0, 0, 0, 0); display: none; cursor: move;"></path></svg><desc style="-webkit-tap-highlight-color: rgba(0, 0, 0, 0);">Created with Logotizer</desc><defs style="-webkit-tap-highlight-color: rgba(0, 0, 0, 0);"><linearGradient id="gradient_0ya3vb60mlratbxy4b2ff" x1="1.8369701987210297e-16" y1="0" x2="0" y2="1" style="-webkit-tap-highlight-color: rgba(0, 0, 0, 0);"><stop offset="0%" stop-color="#c26331" stop-opacity="1" style="-webkit-tap-highlight-color: rgba(0, 0, 0, 0);"></stop><stop offset="100%" stop-color="#04d4c9" stop-opacity="1" style="-webkit-tap-highlight-color: rgba(0, 0, 0, 0);"></stop></linearGradient><linearGradient id="gradient_fnjiz3vkptvfqgp9xs0oki" x1="1.8369701987210297e-16" y1="0" x2="0" y2="1" style="-webkit-tap-highlight-color: rgba(0, 0, 0, 0);"><stop offset="0%" stop-color="#c26331" stop-opacity="1" style="-webkit-tap-highlight-color: rgba(0, 0, 0, 0);"></stop><stop offset="100%" stop-color="#04d4c9" stop-opacity="1" style="-webkit-tap-highlight-color: rgba(0, 0, 0, 0);"></stop></linearGradient></defs><path fill="url(#gradient_fnjiz3vkptvfqgp9xs0oki)" stroke="#000000" d="M-141.63,-31.46Q-141.63,-27.06,-146.69,-20.46Q-151.75,-13.86,-160.11,-7.7Q-175.95,3.74,-198.83,3.74Q-208.95,3.74,-218.08,1.21Q-227.21,-1.32,-236.01,-7.37Q-244.81,-13.42,-251.19,-22.55Q-257.57,-31.68,-261.42,-45.98Q-265.27,-60.28,-265.27,-78.32Q-265.27,-115.28,-244.81,-137.61Q-224.35,-159.94,-192.45,-159.94Q-174.19,-159.94,-158.35,-151.58Q-143.61,-143.44,-143.61,-128.48Q-143.61,-117.26,-146.91,-112.09Q-150.21,-106.92,-154.83,-106.92Q-157.91,-106.92,-159.89,-109.23Q-161.87,-111.54,-164.07,-116.82Q-166.27,-122.1,-167.37,-124.08Q-174.85,-137.28,-180.9,-141.57Q-186.95,-145.86,-197.51,-145.86Q-213.35,-145.86,-223.8,-130.24Q-234.25,-114.62,-234.25,-82.72Q-234.25,-49.28,-223.69,-31.46Q-213.79,-14.3,-192.67,-14.3Q-173.53,-14.3,-158.35,-32.12Q-154.39,-36.52,-152.74,-37.84Q-151.09,-39.16,-148.67,-39.16Q-141.63,-39.16,-141.63,-31.46ZM-36.25,-178.42Q-36.47,-172.92,-40.21,-169.07Q-43.95,-165.22,-49.23,-165.22Q-54.51,-165.22,-58.36,-169.18Q-62.21,-173.14,-62.21,-178.42Q-62.43,-184.14,-58.58,-188.1Q-54.73,-192.06,-49.23,-192.06Q-43.95,-192.28,-40.1,-188.21Q-36.25,-184.14,-36.25,-178.42M-73.43,-178.42Q-73.43,-172.92,-77.17,-169.07Q-80.91,-165.22,-86.63,-165.22Q-91.91,-165.22,-95.43,-169.18Q-98.95,-173.14,-99.17,-178.42Q-99.17,-184.14,-95.54,-188.1Q-91.91,-192.06,-86.63,-192.06Q-80.91,-192.28,-77.06,-188.21Q-73.21,-184.14,-73.43,-178.42M-14.25,-34.32Q-14.25,-28.82,-19.09,-14.3Q-22.39,-4.84,-24.7,-1.98Q-27.01,0.88,-33.17,0.88Q-34.49,0.88,-42.3,0.44Q-50.11,0,-57.37,0L-112.81,0Q-117.21,0,-120.73,-1.87Q-124.25,-3.74,-124.25,-7.26Q-124.25,-12.76,-118.31,-12.76Q-116.77,-12.76,-115.45,-15.07Q-114.13,-17.38,-114.13,-20.9L-114.13,-134.42Q-114.13,-142.78,-118.31,-142.78Q-124.25,-142.78,-124.25,-148.28Q-124.25,-152.02,-120.73,-153.89Q-117.21,-155.76,-112.81,-155.76L-45.93,-155.76Q-42.85,-155.76,-37.9,-155.98Q-32.95,-156.2,-30.97,-156.2Q-20.63,-156.2,-20.63,-147.4Q-20.63,-136.4,-21.51,-130.24Q-23.49,-114.18,-30.09,-114.18Q-32.73,-114.18,-34.27,-117.37Q-35.81,-120.56,-37.46,-125.95Q-39.11,-131.34,-41.09,-134.42Q-41.97,-135.74,-42.85,-136.62Q-43.73,-137.5,-45.05,-138.27Q-46.37,-139.04,-47.47,-139.48Q-48.57,-139.92,-50.44,-140.25Q-52.31,-140.58,-53.41,-140.69Q-54.51,-140.8,-56.93,-140.91Q-59.35,-141.02,-60.45,-141.02Q-61.55,-141.02,-64.41,-141.02Q-67.27,-141.02,-68.37,-141.02L-79.59,-141.02Q-83.11,-141.02,-83.99,-139.37Q-84.87,-137.72,-84.87,-134.42L-84.87,-87.12L-52.31,-89.1Q-50.77,-89.1,-47.47,-89.43Q-44.17,-89.76,-43.51,-89.76Q-39.99,-89.76,-38.56,-88.22Q-37.13,-86.68,-37.13,-82.28Q-37.13,-77.66,-39.99,-74.58Q-42.85,-71.5,-46.81,-71.5Q-47.91,-71.5,-68.37,-73.26L-84.87,-74.14L-84.87,-19.8Q-84.87,-16.72,-82.78,-15.73Q-80.69,-14.74,-75.85,-14.74Q-54.29,-14.74,-49.89,-15.84Q-42.63,-17.82,-37.79,-21.78Q-32.95,-25.74,-26.13,-35.64Q-22.39,-41.14,-19.09,-41.14Q-17.77,-41.14,-16.78,-40.81Q-15.79,-40.48,-15.24,-40.04Q-14.69,-39.6,-14.47,-38.61Q-14.25,-37.62,-14.25,-37.29Q-14.25,-36.96,-14.25,-35.64L-14.25,-34.32ZM123.47,-7.26Q123.47,-3.52,120.06,-1.76Q116.65,0,112.25,0L85.85,0Q81.67,0,78.15,-1.87Q74.63,-3.74,74.63,-7.26Q74.63,-9.02,74.96,-10.12Q75.29,-11.22,76.61,-11.99Q77.93,-12.76,80.35,-12.76Q84.31,-12.76,84.31,-20.9L84.31,-134.42Q84.31,-138.16,83.43,-139.59Q82.55,-141.02,79.25,-141.02L56.81,-141.02Q51.53,-141.02,49.33,-138.93Q47.13,-136.84,46.91,-130.46Q46.91,-129.58,46.8,-121.88Q46.69,-114.18,46.47,-106.26Q46.25,-98.34,45.59,-87.56Q44.93,-76.78,43.83,-68.86Q39.21,-35.64,28.65,-15.4Q19.41,2.2,4.67,2.2Q-9.19,2.2,-9.19,-14.52Q-9.19,-22,-6.44,-25.63Q-3.69,-29.26,0.27,-29.26Q2.47,-29.26,5.44,-28.71Q8.41,-28.16,10.17,-28.16Q16.33,-28.16,21.39,-39.38Q26.45,-50.6,28.65,-71.94Q31.07,-95.26,31.07,-109.12Q31.07,-118.8,30.41,-125.4Q29.75,-132,28.98,-135.3Q28.21,-138.6,26.56,-140.25Q24.91,-141.9,23.81,-142.12Q22.71,-142.34,20.73,-142.34Q15.01,-142.34,15.01,-147.84Q15.01,-151.8,18.42,-153.78Q21.83,-155.76,26.67,-155.76L112.25,-155.76Q123.47,-155.76,123.47,-148.28Q123.47,-142.78,117.97,-142.78Q116.21,-142.78,115,-140.58Q113.79,-138.38,113.79,-134.64L113.79,-20.9Q113.79,-17.6,115,-15.18Q116.21,-12.76,117.97,-12.76Q121.49,-12.76,122.48,-11.44Q123.47,-10.12,123.47,-7.26ZM275.71,-7.26Q275.05,0,263.83,0L234.57,0Q223.35,0,223.35,-7.26Q223.35,-12.76,229.29,-12.76Q231.05,-12.76,232.92,-15.73Q234.79,-18.7,233.91,-21.78L223.35,-57.2L178.47,-57.2L166.59,-21.78Q165.93,-19.36,165.93,-17.82Q165.93,-12.76,170.77,-12.76Q176.49,-12.76,176.49,-7.26Q176.49,0,164.83,0L145.25,0Q134.69,0,134.69,-7.26Q134.69,-12.76,140.19,-12.76Q142.61,-12.76,145.14,-15.84Q147.67,-18.92,149.43,-23.54L191.67,-134.64Q191.67,-137.94,190.46,-140.25Q189.25,-142.56,187.71,-142.56Q184.19,-142.56,182.98,-144.1Q181.77,-145.64,181.99,-148.06Q182.21,-151.8,185.73,-153.78Q189.25,-155.76,194.09,-155.76L214.55,-155.76Q220.93,-155.76,224.01,-151.58Q227.09,-147.4,230.61,-135.3L263.61,-23.1Q266.69,-12.76,269.77,-12.76Q275.71,-12.76,275.71,-7.26M219.61,-70.84L203.33,-131.34L183.31,-70.84L219.61,-70.84Z" opacity="1" fill-opacity="1" stroke-width="2" transform="matrix(0.36,0,0,0.36,159.0005,186.9726)" style="-webkit-tap-highlight-color: rgba(0, 0, 0, 0); opacity: 1; fill-opacity: 1;"></path></svg>